<?xml version="1.0" encoding="UTF-8" standalone="no"?><svg xmlns="http://www.w3.org/2000/svg" xmlns:xlink="http://www.w3.org/1999/xlink" contentScriptType="application/ecmascript" contentStyleType="text/css" height="262px" preserveAspectRatio="none" style="width:347px;height:262px;" version="1.1" viewBox="0 0 347 262" width="347px" zoomAndPan="magnify"><defs><filter height="300%" id="f1mz8d6sbsomsw" width="300%" x="-1" y="-1"><feGaussianBlur result="blurOut" stdDeviation="2.0"/><feColorMatrix in="blurOut" result="blurOut2" type="matrix" values="0 0 0 0 0 0 0 0 0 0 0 0 0 0 0 0 0 0 .4 0"/><feOffset dx="4.0" dy="4.0" in="blurOut2" result="blurOut3"/><feBlend in="SourceGraphic" in2="blurOut3" mode="normal"/></filter></defs><g><!--MD5=[111002b242a260edbcaabc3e471064d0]
cluster checkout--><rect fill="#FFFFFF" filter="url(#f1mz8d6sbsomsw)" height="243" style="stroke:#000000;stroke-width:1.5;" width="143" x="117" y="7"/><text fill="#000000" font-family="sans-serif" font-size="14" font-weight="bold" lengthAdjust="spacingAndGlyphs" textLength="64" x="156.5" y="22.5352">checkout</text><ellipse cx="188.6966" cy="138.2416" fill="#FEFECE" filter="url(#f1mz8d6sbsomsw)" rx="55.6966" ry="14.7416" style="stroke:#A80036;stroke-width:1.5;"/><text fill="#000000" font-family="sans-serif" font-size="14" lengthAdjust="spacingAndGlyphs" textLength="62" x="154.6966" y="142.2592">checkout</text><ellipse cx="188.4819" cy="57.2234" fill="#FEFECE" filter="url(#f1mz8d6sbsomsw)" rx="53.4819" ry="14.7234" style="stroke:#A80036;stroke-width:1.5;"/><text fill="#000000" font-family="sans-serif" font-size="14" lengthAdjust="spacingAndGlyphs" textLength="59" x="155.9819" y="61.241">payment</text><ellipse cx="188.6985" cy="219.159" fill="#FEFECE" filter="url(#f1mz8d6sbsomsw)" rx="32.6985" ry="14.659" style="stroke:#A80036;stroke-width:1.5;"/><text fill="#000000" font-family="sans-serif" font-size="14" lengthAdjust="spacingAndGlyphs" textLength="30" x="173.6985" y="222.45">help</text><!--MD5=[92848cbaf65985a669855153c5362c37]
entity customer--><ellipse cx="38" cy="107" fill="#FEFECE" filter="url(#f1mz8d6sbsomsw)" rx="8" ry="8" style="stroke:#A80036;stroke-width:1.5;"/><path d="M38,115 L38,142 M25,123 L51,123 M38,142 L25,157 M38,142 L51,157 " fill="none" filter="url(#f1mz8d6sbsomsw)" style="stroke:#A80036;stroke-width:1.5;"/><text fill="#000000" font-family="sans-serif" font-size="14" lengthAdjust="spacingAndGlyphs" textLength="64" x="6" y="176.0352">customer</text><!--MD5=[ebeabf449828f4e0b33bbb47961e644b]
entity clerk--><ellipse cx="323.5" cy="107" fill="#FEFECE" filter="url(#f1mz8d6sbsomsw)" rx="8" ry="8" style="stroke:#A80036;stroke-width:1.5;"/><path d="M323.5,115 L323.5,142 M310.5,123 L336.5,123 M323.5,142 L310.5,157 M323.5,142 L336.5,157 " fill="none" filter="url(#f1mz8d6sbsomsw)" style="stroke:#A80036;stroke-width:1.5;"/><text fill="#000000" font-family="sans-serif" font-size="14" lengthAdjust="spacingAndGlyphs" textLength="33" x="307" y="176.0352">clerk</text><!--MD5=[852381a7bb976b86080137fb6d718ea9]
link customer to checkout--><path d="M70.13,138 C88.33,138 111.82,138 133,138 " fill="none" id="customer-checkout" style="stroke:#A80036;stroke-width:1.0;"/><!--MD5=[3ad5c6d5c608bfd6b87dc9c07c40a15f]
link checkout to payment--><path d="M188.5,123.14 C188.5,110.13 188.5,91.11 188.5,76.8 " fill="none" id="checkout-to-payment" style="stroke:#A80036;stroke-width:1.0;stroke-dasharray:7.0,7.0;"/><polygon fill="#A80036" points="188.5,71.76,184.5,80.76,188.5,76.76,192.5,80.76,188.5,71.76" style="stroke:#A80036;stroke-width:1.0;"/><text fill="#000000" font-family="sans-serif" font-size="13" lengthAdjust="spacingAndGlyphs" textLength="46" x="154" y="102.5684">include</text><!--MD5=[739e7928149c8fe27c2b5850560351c7]
link help to checkout--><path d="M188.5,204.14 C188.5,191.13 188.5,172.11 188.5,157.8 " fill="none" id="help-to-checkout" style="stroke:#A80036;stroke-width:1.0;stroke-dasharray:7.0,7.0;"/><polygon fill="#A80036" points="188.5,152.76,184.5,161.76,188.5,157.76,192.5,161.76,188.5,152.76" style="stroke:#A80036;stroke-width:1.0;"/><text fill="#000000" font-family="sans-serif" font-size="13" lengthAdjust="spacingAndGlyphs" textLength="50" x="152" y="183.5684">extends</text><!--MD5=[b4c4ee8f2d94c159d2b9e04bd372cbe0]
link checkout to clerk--><path d="M244.36,138 C266.98,138 291.44,138 306.86,138 " fill="none" id="checkout-clerk" style="stroke:#A80036;stroke-width:1.0;"/><!--MD5=[3b282fd9a779608c50008427c7cda2fa]
@startuml ExampleUseCase
' This is an example comment
left to right direction
actor customer
actor clerk
rectangle checkout {
  customer - - (checkout)
  (checkout) .> (payment) : include
  (help) .> (checkout) : extends
  (checkout) - - clerk
}
@enduml

@startuml ExampleUseCase
left to right direction
actor customer
actor clerk
rectangle checkout {
  customer - - (checkout)
  (checkout) .> (payment) : include
  (help) .> (checkout) : extends
  (checkout) - - clerk
}
@enduml

PlantUML version 1.2020.26(Mon Dec 21 17:45:07 GMT 2020)
(GPL source distribution)
Java Runtime: OpenJDK Runtime Environment
JVM: OpenJDK 64-Bit Server VM
Default Encoding: UTF-8
Language: en
Country: MY
--></g></svg>